<svg xmlns="http://www.w3.org/2000/svg" xmlns:xlink="http://www.w3.org/1999/xlink" width="500" zoomAndPan="magnify" viewBox="0 0 375 374.999991" height="500" preserveAspectRatio="xMidYMid meet" version="1.0"><defs><g/><clipPath id="id1"><path d="M 112.699219 18.078125 L 262.316406 18.078125 L 262.316406 115.578125 L 112.699219 115.578125 Z M 112.699219 18.078125 " clip-rule="nonzero"/></clipPath></defs><g fill="#000000" fill-opacity="1"><g transform="translate(85.671478, 234.077884)"><g><path d="M 30.953125 0 C 28.710938 0 27.09375 -0.816406 26.09375 -2.453125 C 25.09375 -4.097656 24.710938 -6.082031 24.953125 -8.40625 L 29.28125 -51.71875 C 29.4375 -53.800781 30.234375 -55.28125 31.671875 -56.15625 C 33.117188 -57.039062 34.84375 -57.441406 36.84375 -57.359375 C 38.757812 -57.273438 40.195312 -56.535156 41.15625 -55.140625 C 42.113281 -53.742188 42.515625 -52.003906 42.359375 -49.921875 L 38.40625 -6.234375 C 38.164062 -4.234375 37.441406 -2.691406 36.234375 -1.609375 C 35.035156 -0.535156 33.273438 0 30.953125 0 Z M 12 -24.71875 C 9.757812 -24.71875 7.9375 -25.414062 6.53125 -26.8125 C 5.132812 -28.21875 4.519531 -29.800781 4.6875 -31.5625 L 9.234375 -75.125 C 9.472656 -77.125 10.332031 -78.601562 11.8125 -79.5625 C 13.300781 -80.519531 14.925781 -81 16.6875 -81 C 18.519531 -81 20.132812 -80.414062 21.53125 -79.25 C 22.9375 -78.09375 23.5625 -76.359375 23.40625 -74.046875 L 19.078125 -33.234375 L 15.234375 -37.4375 L 51 -37.4375 C 53.082031 -37.4375 54.703125 -36.835938 55.859375 -35.640625 C 57.015625 -34.441406 57.554688 -32.960938 57.484375 -31.203125 C 57.398438 -29.359375 56.773438 -27.816406 55.609375 -26.578125 C 54.453125 -25.335938 52.875 -24.71875 50.875 -24.71875 Z M 12 -24.71875 "/></g></g></g><g fill="#000000" fill-opacity="1"><g transform="translate(151.191508, 234.077884)"><g><path d="M 31.5625 0.125 C 25.320312 0.125 20.097656 -1.453125 15.890625 -4.609375 C 11.691406 -7.773438 8.691406 -12.296875 6.890625 -18.171875 C 5.097656 -24.054688 4.640625 -31.078125 5.515625 -39.234375 C 6.234375 -45.710938 7.570312 -51.507812 9.53125 -56.625 C 11.5 -61.75 13.941406 -66.128906 16.859375 -69.765625 C 19.773438 -73.410156 23.15625 -76.191406 27 -78.109375 C 30.84375 -80.035156 35.003906 -81 39.484375 -81 C 44.203125 -81 48.335938 -80.078125 51.890625 -78.234375 C 55.453125 -76.398438 58.351562 -73.742188 60.59375 -70.265625 C 62.832031 -66.785156 64.375 -62.582031 65.21875 -57.65625 C 66.0625 -52.738281 66.125 -47.203125 65.40625 -41.046875 C 64.4375 -32.554688 62.410156 -25.234375 59.328125 -19.078125 C 56.253906 -12.921875 52.359375 -8.179688 47.640625 -4.859375 C 42.921875 -1.535156 37.5625 0.125 31.5625 0.125 Z M 32.765625 -12.71875 C 35.078125 -12.71875 37.234375 -13.378906 39.234375 -14.703125 C 41.234375 -16.023438 43.035156 -17.941406 44.640625 -20.453125 C 46.242188 -22.972656 47.582031 -26.015625 48.65625 -29.578125 C 49.738281 -33.140625 50.519531 -37.160156 51 -41.640625 C 51.476562 -45.722656 51.515625 -49.398438 51.109375 -52.671875 C 50.710938 -55.953125 49.972656 -58.753906 48.890625 -61.078125 C 47.816406 -63.398438 46.359375 -65.160156 44.515625 -66.359375 C 42.679688 -67.554688 40.5625 -68.15625 38.15625 -68.15625 C 36.320312 -68.15625 34.582031 -67.710938 32.9375 -66.828125 C 31.300781 -65.953125 29.78125 -64.675781 28.375 -63 C 26.976562 -61.320312 25.71875 -59.28125 24.59375 -56.875 C 23.476562 -54.476562 22.519531 -51.738281 21.71875 -48.65625 C 20.914062 -45.582031 20.316406 -42.242188 19.921875 -38.640625 C 19.117188 -30.640625 19.878906 -24.316406 22.203125 -19.671875 C 24.523438 -15.035156 28.046875 -12.71875 32.765625 -12.71875 Z M 32.765625 -12.71875 "/></g></g></g><g fill="#000000" fill-opacity="1"><g transform="translate(223.79154, 234.077884)"><g><path d="M 30.953125 0 C 28.710938 0 27.09375 -0.816406 26.09375 -2.453125 C 25.09375 -4.097656 24.710938 -6.082031 24.953125 -8.40625 L 29.28125 -51.71875 C 29.4375 -53.800781 30.234375 -55.28125 31.671875 -56.15625 C 33.117188 -57.039062 34.84375 -57.441406 36.84375 -57.359375 C 38.757812 -57.273438 40.195312 -56.535156 41.15625 -55.140625 C 42.113281 -53.742188 42.515625 -52.003906 42.359375 -49.921875 L 38.40625 -6.234375 C 38.164062 -4.234375 37.441406 -2.691406 36.234375 -1.609375 C 35.035156 -0.535156 33.273438 0 30.953125 0 Z M 12 -24.71875 C 9.757812 -24.71875 7.9375 -25.414062 6.53125 -26.8125 C 5.132812 -28.21875 4.519531 -29.800781 4.6875 -31.5625 L 9.234375 -75.125 C 9.472656 -77.125 10.332031 -78.601562 11.8125 -79.5625 C 13.300781 -80.519531 14.925781 -81 16.6875 -81 C 18.519531 -81 20.132812 -80.414062 21.53125 -79.25 C 22.9375 -78.09375 23.5625 -76.359375 23.40625 -74.046875 L 19.078125 -33.234375 L 15.234375 -37.4375 L 51 -37.4375 C 53.082031 -37.4375 54.703125 -36.835938 55.859375 -35.640625 C 57.015625 -34.441406 57.554688 -32.960938 57.484375 -31.203125 C 57.398438 -29.359375 56.773438 -27.816406 55.609375 -26.578125 C 54.453125 -25.335938 52.875 -24.71875 50.875 -24.71875 Z M 12 -24.71875 "/></g></g></g><path fill="#000000" d="M 259.527344 73.042969 C 259.476562 73.554688 259.417969 74.070312 259.347656 74.578125 C 259.46875 74.101562 259.457031 74.269531 259.527344 73.042969 " fill-opacity="1" fill-rule="nonzero"/><path fill="#000000" d="M 178.832031 49.679688 C 177.902344 45.5625 177.457031 39.402344 178.925781 34.464844 C 176.984375 39.347656 177.050781 44.65625 178.304688 49.804688 C 178.441406 50.476562 178.644531 50.382812 178.796875 50.929688 C 178.976562 51.503906 178.636719 51.597656 179.296875 53.3125 C 179.496094 53.859375 180.902344 57.925781 182.421875 59.867188 C 182.777344 60.417969 182.828125 60.835938 183.621094 61.964844 C 182.863281 60.367188 182.429688 60.636719 179.449219 51.996094 C 179.335938 51.613281 179 51.292969 178.921875 50.894531 C 178.824219 50.503906 178.964844 50.058594 178.832031 49.679688 " fill-opacity="1" fill-rule="nonzero"/><path fill="#000000" d="M 251.582031 94.546875 C 251.597656 94.535156 251.601562 94.527344 251.609375 94.515625 C 251.601562 94.527344 251.59375 94.539062 251.582031 94.546875 " fill-opacity="1" fill-rule="nonzero"/><g clip-path="url(#id1)"><path fill="#000000" d="M 257.535156 86.730469 C 244.984375 112.589844 217.140625 113.179688 193.675781 98.625 C 193.910156 98.417969 194.148438 98.214844 194.378906 98.003906 C 213.246094 109.054688 236.265625 112.804688 250.507812 95.945312 C 250.398438 95.960938 250.484375 95.957031 250.398438 95.972656 C 253.703125 92.535156 257.84375 85.691406 259.472656 78.488281 C 259.457031 78.527344 259.4375 78.5625 259.417969 78.601562 C 258.773438 81.046875 259.230469 79.375 258.085938 81.992188 C 258.097656 81.558594 258.324219 81.1875 258.464844 80.78125 C 258.578125 80.488281 258.636719 80.179688 258.714844 79.875 C 258.585938 80.101562 258.609375 80.066406 258.40625 80.347656 C 257.925781 81.957031 257.847656 81.824219 257.410156 82.292969 C 257.828125 81.339844 257.730469 81.539062 257.941406 80.992188 C 257.722656 81.289062 257.644531 81.402344 257.445312 81.652344 C 256.355469 84.152344 256.691406 83.339844 255.914062 84.042969 C 255.292969 84.792969 254.816406 85.609375 254.242188 86.382812 C 244.597656 98.753906 222.191406 97.367188 204.097656 86.503906 C 204.410156 86.15625 204.539062 86.019531 205 85.460938 C 218.835938 93.425781 239.042969 98.421875 251.832031 88.78125 C 252.671875 88.078125 252.335938 88.164062 252.71875 87.574219 C 253.09375 87.027344 254.84375 85.902344 256.726562 82.46875 C 255.261719 84.054688 255.542969 84.359375 253.59375 86.410156 C 253.257812 86.746094 252.980469 87.148438 252.5625 87.398438 C 252.359375 87.53125 252.0625 87.554688 251.832031 87.644531 C 251.597656 87.730469 251.453125 87.917969 251.261719 88.054688 C 239.042969 97.414062 219.300781 93.597656 205.253906 85.152344 C 205.476562 84.875 205.890625 84.347656 206.066406 84.035156 C 218.554688 91.429688 233.753906 93.246094 237.230469 92.089844 C 237.816406 91.882812 238.125 92.191406 238.652344 92.128906 C 239.199219 92.089844 239.390625 91.664062 240.027344 91.75 C 240.578125 91.832031 240.808594 91.980469 241.429688 91.558594 C 242.082031 91.117188 242.300781 91.429688 242.84375 91.402344 C 243.335938 91.394531 243.691406 90.898438 244.132812 90.75 C 244.679688 90.53125 249.402344 89.460938 253.699219 85.222656 C 249.867188 88.136719 249.183594 88.390625 247.964844 89.007812 C 247.199219 89.4375 244.847656 90.375 244.070312 90.546875 C 243.617188 90.664062 243.074219 90.429688 242.664062 90.683594 C 242.453125 90.785156 242.257812 90.964844 242.039062 91.058594 C 241.519531 91.289062 241.140625 90.9375 240.628906 91.113281 C 240.40625 91.179688 240.203125 91.367188 239.980469 91.445312 C 239.761719 91.539062 239.523438 91.546875 239.28125 91.5 C 238.546875 91.339844 238.523438 91.40625 237.898438 91.691406 C 237.347656 91.953125 237.042969 91.609375 236.496094 91.628906 C 226.757812 92.230469 215.988281 89.671875 206.253906 83.609375 C 206.484375 82.929688 206.121094 83.9375 206.722656 82.3125 C 227.785156 94.878906 251.671875 93.347656 258.199219 77.289062 C 257.765625 78.652344 257.886719 78.332031 257.589844 78.988281 C 258.039062 78.1875 258.378906 77.472656 258.683594 76.609375 C 258.675781 76.644531 258.667969 76.675781 258.660156 76.710938 C 259.140625 75.503906 259.246094 75.113281 259.382812 73.25 C 262.113281 58.722656 251.304688 42.929688 239.050781 33.371094 C 220.511719 18.90625 197.261719 15.964844 185.683594 26.175781 C 185.5625 26.242188 185.441406 26.3125 185.324219 26.390625 C 177.28125 34.609375 175.117188 51.417969 190.828125 69.210938 C 189.8125 70.671875 188.785156 71.972656 187.625 73.324219 C 186.863281 72.480469 186.121094 71.621094 185.40625 70.738281 C 186.117188 71.625 186.859375 72.488281 187.613281 73.339844 C 187.253906 73.753906 186.890625 74.167969 186.519531 74.574219 C 174.257812 60.542969 172.335938 46.84375 175.003906 38.550781 C 174.277344 41.367188 174.132812 44.3125 174.429688 47.175781 C 174.664062 49.40625 175.300781 52.109375 175.511719 52.660156 C 175.597656 52.851562 175.773438 53.015625 175.917969 53.191406 C 176.199219 53.539062 176.253906 53.945312 176.367188 54.339844 C 176.875 56.222656 178.542969 60.554688 181.585938 65.398438 C 179.316406 61.800781 177.695312 58.152344 176.476562 54.304688 C 175.980469 52.9375 176.390625 53.046875 176.320312 52.453125 C 176.265625 51.902344 174.136719 44.203125 176.726562 36.953125 C 175.878906 39.5625 175.804688 42.394531 175.816406 44.925781 C 175.890625 45.71875 175.839844 46.542969 176.453125 47.265625 C 176.707031 47.910156 176.746094 53.640625 182.027344 62.730469 C 177.585938 55.152344 176.570312 47.832031 176.628906 47.246094 C 176.683594 46.839844 176.960938 46.425781 176.90625 46.042969 C 176.972656 44.089844 176.289062 42.6875 177.890625 36.914062 C 178.332031 35.582031 177.222656 36.8125 179.761719 32.210938 C 179.980469 31.648438 180.488281 30.75 180.859375 30.023438 C 178.050781 33.273438 178.21875 34.054688 177.441406 35.507812 C 177.226562 35.78125 177.074219 36.078125 176.941406 36.386719 C 177.367188 35.320312 177.875 34.289062 178.214844 33.136719 C 178.574219 32.742188 178.675781 32.71875 178.890625 32.132812 C 179.101562 31.53125 179.402344 31.070312 181.039062 29.171875 L 180.144531 30.019531 C 178.957031 31.269531 179.003906 31.394531 178.4375 31.8125 C 177.984375 32.203125 177.96875 32.394531 177.757812 32.855469 C 177.421875 33.175781 177.136719 33.535156 176.882812 33.910156 C 177.484375 32.699219 178.175781 31.527344 179.03125 30.433594 C 177.34375 32.03125 175.671875 33.984375 174.714844 36.125 C 175.136719 35.089844 175.53125 33.933594 177.019531 31.691406 C 175.1875 33.652344 174.90625 34.019531 173.78125 35.78125 C 169.503906 43.597656 169.863281 59.476562 185.070312 76.097656 C 184.707031 76.464844 184.339844 76.828125 183.96875 77.183594 C 177.179688 69.460938 171.867188 59.734375 171.066406 49.53125 C 170.667969 43.699219 171.789062 40.53125 173.085938 36.910156 C 171.722656 39.203125 170.980469 40.84375 170.285156 42.546875 C 168.140625 55.035156 175.234375 68.023438 183.773438 77.371094 C 183.4375 77.695312 183.09375 78.011719 182.746094 78.328125 C 174.234375 68.832031 167.914062 56.382812 169.851562 43.652344 C 169.300781 45.09375 168.8125 46.554688 168.382812 48.035156 C 168.535156 58.972656 175.058594 70.5625 182.34375 78.695312 C 181.925781 79.066406 181.503906 79.4375 181.074219 79.796875 C 180.734375 79.617188 180.347656 79.257812 180.140625 78.859375 C 179.945312 78.578125 179.972656 78.113281 179.785156 77.835938 C 179.625 77.53125 179.195312 77.449219 178.886719 77.265625 C 178.59375 77.066406 178.40625 76.78125 178.21875 76.5 C 178.089844 76.292969 177.917969 76.113281 177.757812 75.929688 C 177.195312 75.148438 177.410156 75.359375 177.269531 74.683594 C 177.152344 74.039062 176.8125 74.21875 176.332031 73.851562 C 176.253906 73.734375 176.175781 73.617188 176.097656 73.496094 C 175.945312 72.90625 176.308594 72.546875 175.328125 72.277344 C 175.144531 71.980469 174.96875 71.679688 174.792969 71.382812 C 174.917969 70.621094 174.703125 70.585938 174.15625 70.273438 C 173.847656 69.726562 173.550781 69.179688 173.261719 68.625 C 173.242188 67.773438 172.984375 67.132812 172.296875 66.671875 C 172.125 66.308594 171.957031 65.949219 171.792969 65.582031 C 171.886719 64.753906 171.652344 64.960938 171.046875 63.226562 C 170.882812 62.675781 170.667969 62.070312 170.257812 61.730469 C 169.832031 60.503906 169.558594 59.585938 169.28125 58.550781 C 169.410156 58.167969 169.3125 57.867188 169.035156 57.605469 C 168.46875 55.257812 167.847656 51.445312 168.105469 49.09375 C 168.078125 49.207031 168.046875 49.320312 168.019531 49.429688 C 168.011719 45.179688 168.90625 41.152344 171.011719 37.609375 L 170.925781 37.265625 C 171.007812 37.304688 171.074219 37.421875 171.03125 37.566406 C 175.230469 30.722656 180.871094 25.289062 188.105469 22.238281 C 188.929688 21.890625 192.433594 20.601562 193.355469 20.320312 C 224.355469 10.9375 275.476562 49.910156 257.535156 86.730469 Z M 203.0625 87.980469 C 203.0625 87.980469 203.421875 87.46875 203.820312 86.878906 C 219.222656 95.835938 240.613281 100.273438 252.632812 89.484375 C 241.394531 101.058594 219.265625 97.6875 203.0625 87.980469 Z M 202.011719 89.488281 C 202.277344 89.113281 202.542969 88.738281 202.800781 88.359375 C 217.496094 96.859375 239.527344 102.316406 252.078125 91.390625 C 243.089844 100.128906 224.15625 102.550781 202.011719 89.488281 Z M 248.710938 95.214844 C 236.550781 103.335938 216.992188 100.65625 200.929688 90.949219 C 201.207031 90.585938 201.488281 90.226562 201.757812 89.855469 C 215.164062 97.867188 235.351562 103.351562 248.710938 95.214844 Z M 198.5 93.960938 C 198.605469 93.90625 198.652344 93.796875 198.691406 93.679688 C 198.949219 93.386719 199.203125 93.085938 199.453125 92.789062 C 209.628906 98.917969 222.070312 103.15625 233.792969 102.617188 C 221.867188 104.1875 208.421875 100.203125 198.5 93.960938 Z M 197.699219 94.75 C 197.773438 94.671875 197.851562 94.597656 197.925781 94.515625 C 206.710938 99.539062 217.039062 103.375 227.1875 103.910156 C 216.945312 103.757812 206.28125 100.089844 197.699219 94.75 Z M 196.898438 95.582031 C 197.003906 95.476562 197.105469 95.367188 197.207031 95.257812 C 205.679688 100.128906 215.171875 103.878906 224.902344 104.742188 C 216.304688 104.421875 206.171875 101.457031 196.898438 95.582031 Z M 195.941406 96.527344 C 196.070312 96.402344 196.199219 96.28125 196.332031 96.152344 C 204.753906 101.011719 214.410156 104.800781 224.011719 105.59375 C 214.253906 105.273438 204.28125 101.84375 195.941406 96.527344 Z M 224.644531 106.519531 C 214.25 106.648438 203.800781 103.015625 195.003906 97.425781 C 195.128906 97.308594 195.246094 97.191406 195.371094 97.074219 C 204.183594 102.1875 214.410156 106.097656 224.644531 106.519531 Z M 239.78125 101.875 C 239.691406 101.933594 239.566406 101.964844 239.425781 101.945312 C 239.542969 101.921875 239.664062 101.898438 239.78125 101.875 Z M 249.75 96.371094 C 249.570312 96.421875 248.808594 96.441406 248.777344 96.621094 C 248.578125 96.703125 248.386719 96.789062 248.238281 96.917969 C 247.128906 96.839844 248.265625 98.605469 246.785156 98.246094 C 246.023438 98.070312 246.382812 98.273438 243.984375 99.347656 C 243.824219 99.425781 241.386719 100.652344 241.226562 100.722656 C 239.78125 100.4375 240.578125 101.175781 238.664062 101.457031 C 225.664062 103.882812 211.074219 99.144531 199.808594 92.375 C 200.09375 92.027344 200.367188 91.675781 200.644531 91.320312 C 216.011719 100.441406 238.890625 105.738281 252.210938 93.726562 C 251.074219 95.222656 250.296875 95.820312 249.75 96.371094 Z M 251.179688 94.988281 C 251.632812 94.441406 251.234375 94.941406 251.8125 94.246094 C 251.429688 94.734375 251.566406 94.570312 251.179688 94.988281 Z M 251.578125 94.554688 C 251.558594 94.574219 251.542969 94.597656 251.523438 94.621094 C 251.523438 94.621094 251.570312 94.558594 251.578125 94.554688 Z M 203.671875 48.351562 C 204.640625 51.679688 204.988281 54.867188 204.378906 59.167969 C 199.082031 94.617188 140.789062 117.949219 121.117188 94.886719 C 134.289062 108.714844 162.296875 102.425781 178.445312 91.996094 C 193.289062 82.328125 207.757812 65.113281 203.671875 48.351562 Z M 209.363281 69.46875 C 205.351562 93.308594 174.496094 114.824219 148.691406 113.328125 C 175.421875 113.355469 203.949219 92.617188 209.363281 69.46875 Z M 195.367188 88.414062 C 195.5625 87.898438 196.621094 86.8125 197.089844 86.480469 C 196.527344 87.136719 195.957031 87.78125 195.367188 88.414062 Z M 192.929688 90.882812 C 193.035156 90.609375 193.125 90.375 193.632812 89.941406 L 193.6875 90 C 193.8125 89.878906 193.933594 89.753906 194.058594 89.636719 C 194.128906 89.597656 194.207031 89.5625 194.289062 89.535156 C 193.84375 89.992188 193.386719 90.441406 192.929688 90.882812 Z M 189.660156 93.847656 C 190.230469 93.167969 190.496094 92.625 191.699219 92.035156 C 191.03125 92.652344 190.351562 93.257812 189.660156 93.847656 Z M 148.226562 110.332031 C 158.425781 109.863281 170.351562 105.75 177.355469 101.925781 C 177.957031 101.589844 178.445312 101.054688 179.0625 100.75 C 179.371094 100.597656 179.792969 100.640625 180.085938 100.453125 C 180.390625 100.296875 180.574219 99.929688 180.847656 99.71875 C 181.199219 99.429688 181.074219 99.527344 184.4375 97.671875 C 185.042969 97.335938 185.617188 96.957031 186.191406 96.566406 C 186.878906 96.332031 186.972656 95.308594 187.683594 95.113281 C 188.195312 94.839844 188.183594 94.929688 188.746094 94.613281 C 177.613281 103.808594 162.789062 110.429688 148.226562 110.332031 Z M 200.574219 84.226562 C 189.09375 99.628906 168.082031 111.777344 148.40625 111.332031 C 166.515625 110.714844 188.28125 99.828125 200.574219 84.226562 Z M 209.113281 65.292969 C 209.050781 65.703125 208.976562 66.109375 208.898438 66.515625 C 208.71875 66.078125 208.90625 65.71875 209.113281 65.292969 Z M 209.609375 65.1875 C 206.828125 88.539062 176.859375 112.605469 149.996094 112.34375 C 177.058594 111.105469 205.972656 88.390625 209.609375 65.1875 Z M 179.851562 46.460938 C 188.144531 46.027344 194.695312 48.355469 197.605469 50.742188 C 197.355469 56.871094 194.816406 63.234375 191.378906 68.398438 C 187.042969 63.90625 185.542969 61.273438 184.675781 59.765625 C 182.339844 55.675781 180.570312 51.09375 179.851562 46.460938 Z M 180.191406 38.886719 C 180.132812 38.980469 180.078125 39.070312 180.023438 39.160156 C 180.03125 39.105469 180.042969 39.050781 180.050781 38.996094 C 180.097656 38.960938 180.144531 38.925781 180.191406 38.886719 Z M 252.65625 83.027344 C 252.542969 84.132812 252.617188 83.78125 251.828125 84.878906 C 251.699219 84.980469 251.566406 85.078125 251.433594 85.179688 C 251.707031 84.792969 252.226562 83.910156 252.65625 83.027344 Z M 182.964844 32.558594 C 195.449219 20.007812 226.34375 25.644531 244.195312 46.863281 C 256.058594 60.957031 256.84375 74.417969 253.199219 81.792969 C 257.992188 69.859375 250.621094 55.496094 241.59375 46.199219 C 221.835938 25.855469 195.285156 21.5625 182.964844 32.558594 Z M 249.726562 58.3125 C 253.464844 65.730469 255.355469 74.929688 251.777344 82.457031 C 256.324219 70.621094 249.375 56.980469 240.652344 47.832031 C 237.382812 44.40625 233.667969 41.46875 229.835938 38.730469 C 209.9375 24.953125 190.816406 26.425781 182.589844 34.351562 C 197.332031 19.152344 235.804688 30.746094 249.726562 58.3125 Z M 251.527344 78.886719 C 251.574219 78.582031 251.753906 77 251.632812 76.714844 C 251.601562 76.632812 251.558594 76.550781 251.515625 76.464844 C 251.527344 76.265625 251.53125 76.0625 251.535156 75.863281 C 252.085938 74.847656 251.28125 69.910156 250.878906 69.070312 C 250.9375 67.464844 247.6875 58.261719 240.800781 50.613281 L 240.847656 50.574219 C 240.023438 49.625 239.152344 48.683594 238.261719 47.785156 L 238.238281 47.808594 C 236.8125 46.289062 236.492188 46.148438 235.972656 45.824219 C 235.710938 45.527344 235.539062 45.179688 235.246094 44.9375 C 235.246094 44.933594 233.90625 43.765625 233.90625 43.765625 C 233.792969 43.675781 233.664062 43.605469 233.527344 43.546875 C 232.546875 42.242188 223.21875 35.960938 221.070312 35.425781 C 220.253906 34.796875 205.253906 27.222656 190.753906 31.355469 C 190.207031 31.628906 189.820312 31.433594 189.273438 31.84375 C 188.269531 32.507812 187.648438 32.21875 186.484375 33.074219 C 185.804688 33.304688 185.839844 33.621094 185.292969 33.9375 C 184.753906 34.253906 184.496094 34.144531 184.066406 34.625 C 182.585938 35.4375 182.496094 36.347656 181.808594 36.777344 C 181.40625 37.066406 181.113281 37.480469 180.832031 37.882812 C 181.390625 36.378906 182.171875 36.085938 183.902344 34.550781 C 198.804688 21.992188 234.949219 32.675781 248.410156 59.582031 C 251.875 66.507812 253.625 74.699219 250.875 81.9375 C 251.179688 80.875 251.304688 80.457031 251.527344 78.886719 Z M 250.121094 80.347656 C 254.679688 56.496094 221.132812 27.71875 194.976562 31.289062 C 214.265625 28.203125 232.695312 43.644531 233.242188 43.894531 C 233.480469 44.230469 235.09375 45.535156 234.878906 45.351562 C 235.277344 45.683594 235.4375 45.695312 235.828125 45.984375 C 236.488281 46.859375 235.746094 46.074219 237.886719 48.152344 C 238.753906 49.0625 239.617188 49.992188 240.433594 50.933594 L 240.472656 50.902344 C 249.296875 61.59375 249.410156 67.792969 250.183594 69.226562 C 250.1875 69.597656 250.550781 71.519531 250.613281 72.082031 C 250.839844 73.410156 250.636719 75.09375 250.988281 75.839844 C 250.984375 76.042969 250.980469 76.242188 250.96875 76.441406 C 250.527344 77.15625 250.855469 77.667969 250.121094 80.347656 Z M 250.371094 85.265625 C 250.292969 85.855469 250.246094 85.835938 249.664062 86.394531 C 249.601562 86.433594 249.535156 86.46875 249.472656 86.507812 C 249.746094 86.320312 250.210938 85.539062 250.371094 85.265625 Z M 249.453125 82.148438 C 249.503906 82.359375 249.484375 82.296875 249.484375 82.367188 C 249.449219 82.46875 249.414062 82.570312 249.375 82.671875 C 249.367188 82.46875 249.402344 82.34375 249.453125 82.148438 Z M 249.210938 82.605469 C 249.296875 82.121094 249.265625 82.324219 249.355469 81.777344 C 249.367188 81.832031 249.382812 81.886719 249.398438 81.945312 C 249.347656 82.1875 249.320312 82.421875 249.210938 82.605469 Z M 249.285156 86.609375 C 248.988281 86.78125 248.691406 86.953125 248.386719 87.113281 C 248.738281 86.769531 248.835938 86.769531 249.285156 86.609375 Z M 247.789062 87.046875 C 247.917969 86.992188 248.054688 86.945312 248.195312 86.890625 L 248.21875 86.859375 C 248.410156 86.761719 248.53125 86.609375 248.644531 86.449219 C 248.472656 86.824219 248.121094 87.261719 247.234375 87.664062 C 247.390625 87.433594 247.609375 87.234375 247.789062 87.046875 Z M 247.144531 76.742188 C 246.847656 75.597656 245.269531 70.972656 242.703125 66.621094 C 242.472656 65.703125 242.480469 65.695312 241.753906 65.070312 C 240.757812 63.507812 239.683594 62.023438 238.574219 60.613281 C 238.292969 59.765625 237.035156 58.210938 236.148438 57.730469 C 234.375 55.75 233.242188 54.707031 232.691406 54.179688 C 232.058594 52.984375 232.773438 53.625 231.472656 53.023438 C 230.335938 51.988281 228.359375 50.339844 228.359375 50.339844 C 228.121094 50.054688 227.933594 49.699219 227.636719 49.480469 C 227.355469 49.242188 226.972656 49.140625 226.636719 48.976562 C 226.496094 48.910156 224.195312 47.261719 223.980469 47.023438 C 223.726562 46.742188 223.527344 46.371094 223.210938 46.183594 C 222.933594 45.988281 222.632812 45.972656 221.992188 45.789062 C 220.726562 44.988281 219.429688 44.238281 218.109375 43.527344 C 217.890625 42.863281 217.285156 42.527344 216.59375 42.722656 C 215.066406 41.949219 213.949219 41.414062 212.207031 40.6875 C 212.109375 40.378906 211.96875 40.195312 211.804688 40.058594 C 232.3125 47.910156 244.160156 63.199219 247.144531 76.742188 Z M 248.125 77.816406 C 245.367188 60.277344 229.671875 46.402344 213.675781 39.191406 C 234.445312 47.15625 246.316406 63.953125 248.125 77.816406 Z M 248.714844 76.421875 C 246.542969 58.835938 228.808594 43.425781 212.574219 37.160156 C 234.199219 44.535156 247.363281 62.3125 248.714844 76.421875 Z M 248.140625 66.011719 C 247.84375 65.59375 247.773438 65.71875 247.464844 65.210938 C 247.199219 64.558594 246.914062 63.910156 246.597656 63.277344 C 246.367188 62.421875 246.84375 62.714844 245.957031 61.183594 C 245.71875 60.449219 245.261719 60.03125 244.714844 59.605469 C 244.105469 59.113281 244.71875 58.464844 243.917969 58.03125 C 242.910156 57.507812 243.394531 57.101562 243.042969 56.554688 C 240.800781 53.15625 239.21875 51.773438 238.753906 51.226562 C 238.21875 50.453125 237.660156 50.339844 237.109375 49.902344 C 236.703125 49.351562 236.648438 48.789062 235.125 47.605469 C 234.621094 47.175781 234.113281 47.140625 233.738281 46.609375 C 232.363281 44.722656 225.515625 40.085938 223.488281 39.007812 C 223.042969 38.714844 222.757812 38.816406 222.375 38.625 C 222.078125 38.457031 221.8125 38.109375 221.4375 37.859375 C 219.84375 36.789062 219.800781 37.597656 218.878906 36.683594 C 218.773438 36.574219 218.65625 36.484375 218.535156 36.402344 C 238.710938 45.285156 251.117188 63.667969 250.371094 77.230469 C 250.226562 78.890625 250.230469 80.289062 249.726562 80.839844 C 250.425781 76.882812 249.890625 72.390625 248.765625 68.894531 C 248.691406 68.621094 248.609375 68.351562 248.65625 68.039062 C 248.753906 67.320312 248.472656 66.472656 248.140625 66.011719 Z M 215.792969 35.28125 C 216.296875 35.472656 216.796875 35.667969 217.296875 35.875 C 216.53125 35.710938 216.625 36 215.792969 35.28125 Z M 216.136719 36.554688 C 216.785156 36.941406 216.449219 36.972656 217.394531 37.367188 C 217.691406 37.5 218.09375 37.65625 218.421875 37.675781 C 219.554688 37.769531 219.230469 38.222656 220.449219 38.769531 C 221.304688 39.1875 221.382812 38.996094 221.929688 39.242188 C 222.261719 39.421875 222.304688 39.601562 222.675781 39.859375 C 222.675781 39.859375 227.710938 42.613281 232.214844 46.363281 C 233.085938 47.082031 232.832031 46.828125 233.347656 47.101562 C 233.542969 47.214844 233.578125 47.257812 233.722656 47.386719 C 234.210938 47.933594 234.101562 48.195312 235.0625 48.898438 C 235.59375 49.542969 235.945312 49.738281 236.417969 49.992188 C 236.730469 50.152344 236.832031 50.277344 236.992188 50.554688 C 237.257812 51.167969 237.605469 51.582031 238.066406 51.992188 C 238.96875 53.144531 239.800781 54.042969 240.144531 54.5 C 240.632812 55.164062 240.78125 55.386719 242.199219 57.152344 C 242.4375 57.449219 242.832031 57.484375 243.054688 57.832031 C 243.394531 58.378906 243.023438 58.816406 243.664062 59.199219 C 243.867188 59.328125 244.035156 59.394531 244.179688 59.578125 C 244.484375 60.277344 244.171875 60.585938 244.96875 61.632812 C 245.238281 62.132812 245.300781 62.527344 245.769531 62.886719 C 246.320312 63.320312 246.335938 63.324219 247.164062 65.234375 C 247.433594 66.085938 246.984375 66.355469 247.6875 67.535156 C 247.839844 67.828125 247.777344 67.816406 248.15625 68.203125 C 248.734375 68.785156 250.53125 75.183594 249.574219 81.011719 C 249.527344 81.0625 249.484375 81.121094 249.445312 81.175781 C 250.746094 71.453125 244.816406 55.484375 227.585938 43.527344 C 223.046875 40.355469 218.027344 37.582031 212.804688 35.671875 C 214.753906 36.308594 215.320312 36.523438 216.136719 36.554688 Z M 192.273438 36.519531 C 190.265625 36.5625 188.363281 36.742188 186.308594 37.191406 C 185.738281 36.945312 185.082031 37.109375 184.695312 37.59375 C 184.089844 37.773438 183.484375 37.96875 182.894531 38.207031 C 185.75 36.703125 187.980469 36.195312 190.003906 36.054688 C 196.820312 35.574219 204.757812 37.355469 211.210938 39.832031 C 210.976562 39.839844 210.816406 39.851562 210.519531 40.015625 C 205.421875 38.074219 199.449219 36.65625 194.042969 36.519531 C 193.527344 35.976562 192.789062 35.976562 192.273438 36.519531 Z M 192.722656 37.410156 C 192.761719 37.410156 192.804688 37.410156 192.84375 37.410156 C 192.894531 37.425781 192.949219 37.4375 193 37.445312 C 193.136719 37.601562 193.273438 37.757812 193.40625 37.921875 C 193.042969 37.628906 193.105469 37.6875 192.722656 37.410156 Z M 193.832031 39.644531 C 192.882812 38.816406 191.863281 38.074219 190.777344 37.449219 C 190.84375 37.445312 190.910156 37.4375 190.976562 37.4375 C 192.246094 38.25 192.984375 38.847656 193.832031 39.644531 Z M 188.164062 37.671875 C 188.398438 37.640625 188.632812 37.621094 188.867188 37.597656 C 191.261719 38.835938 193.457031 40.398438 195.199219 42.53125 C 193.394531 40.648438 190.972656 38.921875 188.164062 37.671875 Z M 185.238281 38.214844 C 185.585938 38.253906 185.816406 38.191406 186.082031 38.019531 C 186.113281 38.011719 186.148438 38.007812 186.183594 38 C 189.847656 39.367188 193 41.351562 195.539062 44.480469 C 192.929688 41.535156 189.054688 39.367188 185.238281 38.214844 Z M 183.585938 40.371094 C 182.695312 40.160156 181.792969 39.996094 180.886719 39.867188 C 180.894531 39.863281 181.160156 39.640625 181.171875 39.632812 C 182.132812 39.785156 182.636719 40.125 183.585938 40.371094 Z M 195.953125 44.992188 C 197.230469 46.554688 197.527344 47.296875 197.609375 49.351562 C 197.546875 49.226562 197.484375 49.101562 197.421875 48.980469 C 197.484375 47.347656 196.910156 46.324219 195.953125 44.992188 Z M 197.039062 48.253906 C 196.484375 47.265625 195.617188 46.527344 195.03125 45.53125 C 194.820312 45.28125 194.371094 44.820312 194.078125 44.648438 C 193.726562 44.203125 193.414062 44.226562 192.96875 43.90625 C 192.417969 43.519531 192.523438 43.242188 191.875 42.945312 C 191.535156 42.648438 191.140625 42.421875 190.75 42.207031 C 190.488281 42.050781 190.171875 42 189.894531 41.886719 C 189.09375 41.597656 189.476562 41.335938 187.933594 40.917969 C 187.667969 40.761719 186.777344 40.46875 186.480469 40.367188 C 185.3125 39.785156 185.988281 40.117188 184.046875 39.632812 C 182.820312 39.316406 182.714844 39.316406 182.167969 39.210938 C 182.550781 39.042969 182.941406 38.886719 183.335938 38.75 C 190.011719 40.441406 192.945312 43.257812 195.5 45.882812 C 196.050781 46.441406 196.695312 46.972656 197.039062 48.253906 Z M 246.828125 87.300781 C 242.089844 91.136719 225.042969 92.59375 206.925781 81.773438 C 207.152344 81.140625 209.632812 75.664062 210.367188 72.773438 C 210.554688 72.046875 211.050781 69.402344 211.164062 68.777344 C 212.035156 64.019531 210.859375 49.003906 199.808594 38.125 C 228.765625 43.199219 251.355469 72.171875 246.828125 87.300781 Z M 256.175781 80.046875 C 255.820312 80.613281 255.4375 81.152344 255.042969 81.660156 C 255.226562 81.261719 255.296875 80.996094 255.585938 80.671875 C 255.875 80.386719 256.042969 80.242188 256.175781 80.046875 Z M 244.320312 44.015625 C 243.738281 43.414062 242.402344 41.945312 240.527344 40.160156 C 228.183594 28.867188 211.144531 20.945312 195.03125 23.925781 C 215.378906 18.9375 240.628906 32.878906 252.019531 51.140625 C 255.804688 57.242188 257.550781 63.199219 257.4375 63.917969 C 257.242188 64.699219 257.628906 65.332031 257.964844 68.503906 C 258.269531 71.429688 257.855469 72.851562 257.878906 74.589844 C 258.019531 75.199219 258.171875 75.277344 257.925781 76.160156 C 257.570312 77.507812 256.957031 78.796875 256.222656 79.972656 C 256.550781 79.425781 259.46875 71.996094 255.542969 61.273438 C 254.722656 59.152344 254.765625 60.214844 254.28125 58.839844 C 252.695312 54.917969 249.832031 50.683594 247.179688 47.335938 C 249.890625 50.738281 251.816406 54.039062 253.546875 57.683594 C 254.992188 60.914062 254.089844 59.53125 254.589844 60.898438 C 258.726562 72.671875 255.269531 79.058594 255.234375 79.804688 C 255.210938 80.351562 255.359375 80.546875 255.066406 81.179688 C 254.457031 82.289062 254.441406 82.648438 252.417969 84.386719 C 252.554688 84.15625 252.722656 83.921875 252.9375 83.757812 C 253.125 83.621094 253.371094 83.511719 253.523438 83.34375 C 253.941406 82.785156 255.753906 79.375 256.097656 74.597656 C 257.632812 50.296875 224.847656 23.824219 199.402344 24.996094 C 192.574219 25.3125 185.941406 27.539062 181.539062 32.5625 C 189.472656 21.152344 219.769531 18.574219 244.320312 44.015625 Z M 231.160156 28.695312 C 238.890625 33.207031 245.347656 38.996094 250.09375 45.199219 C 244.261719 37.820312 238.039062 32.847656 231.160156 28.695312 Z M 253.046875 49.460938 C 253.265625 49.8125 254.257812 51.429688 254.394531 51.820312 C 254.582031 52.367188 260.296875 61.417969 259.066406 71.679688 C 259.0625 70.191406 258.816406 64.90625 257.855469 63.816406 C 257.519531 63.363281 257.507812 62.832031 257.347656 62.335938 C 252.535156 45.648438 234.539062 29.957031 218.429688 24.613281 C 207.828125 21.070312 194.964844 20.539062 185.800781 26.875 C 185.859375 26.800781 185.917969 26.722656 185.972656 26.640625 C 201.34375 12.945312 236.921875 24.695312 253.046875 49.460938 Z M 182.199219 34.757812 C 181.1875 35.964844 180.535156 36.808594 180.394531 38.386719 C 180.304688 38.4375 180.214844 38.492188 180.128906 38.554688 C 180.585938 36.253906 181.652344 35.335938 182.199219 34.757812 Z M 183.253906 45.613281 C 181.660156 45.546875 180.707031 45.582031 179.683594 45.625 C 179.683594 45.601562 179.691406 45.332031 179.6875 45.304688 C 180.882812 45.277344 182.0625 45.546875 183.253906 45.613281 Z M 179.675781 38.925781 C 179.691406 38.878906 179.875 38.371094 179.875 38.371094 C 179.867188 38.5 179.863281 38.628906 179.859375 38.757812 C 179.796875 38.8125 179.738281 38.867188 179.675781 38.925781 Z M 179.863281 39.128906 C 179.867188 39.21875 179.871094 39.308594 179.875 39.398438 C 179.699219 39.695312 179.875 39.390625 179.65625 39.761719 C 179.644531 39.765625 179.632812 39.769531 179.621094 39.773438 C 179.601562 39.59375 179.617188 39.542969 179.640625 39.296875 C 179.765625 39.203125 179.683594 39.253906 179.863281 39.128906 Z M 185.257812 75.902344 C 175.972656 65.359375 169.113281 50.3125 174.21875 37.359375 C 169.792969 50.183594 177.003906 64.699219 186.3125 74.792969 C 185.96875 75.167969 185.617188 75.539062 185.257812 75.902344 Z M 118.378906 66.023438 C 117.949219 67.398438 117.84375 66.355469 117.140625 68.5625 C 122.203125 45.058594 154.949219 26.203125 175.878906 29.578125 C 176.066406 29.644531 176.257812 29.660156 176.449219 29.65625 C 176.394531 29.710938 176.175781 29.949219 176.167969 29.957031 C 150.730469 28.347656 123.636719 49.261719 118.378906 66.023438 Z M 120.894531 85.207031 C 113.664062 65.640625 140.246094 34.570312 172.6875 34.195312 L 172.03125 35.148438 C 143.492188 36.914062 114.59375 64.605469 120.894531 85.207031 Z M 121.644531 87.320312 C 121.488281 87.152344 121.335938 86.984375 121.183594 86.8125 C 121.140625 86.492188 121.203125 86.445312 121.195312 86.125 C 121.320312 86.472656 121.117188 85.96875 121.644531 87.320312 Z M 122.210938 85.878906 C 115.449219 67.507812 139.34375 37.839844 171.421875 36.039062 C 171.203125 36.367188 170.984375 36.691406 170.765625 37.035156 C 145.160156 39.550781 116.226562 64.480469 122.210938 85.878906 Z M 157.175781 42.054688 C 155.113281 42.398438 145.183594 47.683594 144.03125 48.996094 C 143.5625 49.144531 143.304688 49.421875 142.902344 49.714844 C 141.386719 50.78125 142.144531 50.292969 141.382812 51.027344 C 140.785156 51.320312 140.757812 51.191406 138.957031 52.78125 L 138.9375 52.757812 C 137.960938 53.574219 137.007812 54.429688 136.105469 55.292969 L 136.144531 55.335938 C 129.082031 61.839844 124.515625 70.683594 124.386719 72.78125 C 123.890625 73.617188 122.664062 78.445312 123.097656 79.46875 C 123.082031 79.675781 123.070312 79.878906 123.0625 80.085938 C 122.878906 80.375 122.84375 80.472656 122.84375 80.746094 C 122.773438 82.988281 122.871094 83.875 123.195312 85.582031 C 117.90625 66.445312 141.75 40.359375 170.261719 37.886719 C 170.230469 37.921875 169.808594 38.550781 169.605469 38.886719 C 163.570312 39.613281 157.992188 41.574219 157.175781 42.054688 Z M 128.824219 66.269531 C 122.867188 76.121094 124.066406 83.003906 124.097656 84.074219 C 123.609375 81.265625 123.992188 80.859375 123.609375 80.09375 C 123.617188 79.90625 123.625 79.71875 123.640625 79.53125 C 124.0625 78.824219 124.035156 77.066406 124.375 75.796875 C 124.492188 75.246094 125.027344 73.371094 125.066406 73.003906 C 126.042969 71.527344 126.667969 65.484375 136.449219 55.652344 L 136.480469 55.691406 C 137.378906 54.832031 138.320312 53.988281 139.289062 53.175781 C 141.535156 51.34375 140.835938 51.960938 141.515625 51.203125 C 141.921875 50.964844 142.105469 50.949219 142.5 50.671875 C 142.84375 50.433594 144.019531 49.660156 144.277344 49.359375 C 144.550781 49.269531 145.421875 48.710938 145.667969 48.558594 C 146.570312 48.023438 149.507812 46.027344 154.660156 43.878906 C 154.84375 43.796875 157.308594 42.777344 157.410156 42.722656 C 158.554688 42.554688 162.234375 40.796875 169.097656 39.855469 C 169.0625 39.917969 169.027344 39.980469 169 40.042969 C 153.515625 42.398438 137.3125 52.269531 128.824219 66.269531 Z M 165.152344 49.308594 C 165.109375 49.53125 164.917969 50.464844 164.867188 50.707031 C 162.378906 62.4375 167.914062 74.835938 175.378906 84.09375 C 160.78125 93.914062 140.425781 98.898438 126.714844 91.253906 C 124.636719 80.738281 137.714844 58.582031 165.152344 49.308594 Z M 165.5 47.695312 C 165.460938 47.851562 165.425781 48.011719 165.390625 48.167969 C 164.003906 48.605469 162.707031 49.050781 160.976562 49.738281 C 160.324219 49.484375 159.691406 49.75 159.40625 50.378906 C 158.019531 50.96875 156.652344 51.605469 155.308594 52.289062 C 154.675781 52.410156 154.367188 52.398438 154.074219 52.566406 C 153.738281 52.722656 153.507812 53.074219 153.230469 53.328125 C 152.992188 53.546875 150.550781 54.972656 150.398438 55.027344 C 150.050781 55.160156 149.660156 55.226562 149.359375 55.4375 C 149.042969 55.628906 148.820312 55.964844 148.558594 56.226562 C 148.558594 56.226562 146.4375 57.679688 145.210938 58.605469 C 143.929688 59.042969 144.605469 58.507812 143.898438 59.625 C 143.339844 60.078125 142.132812 60.988281 140.121094 62.855469 C 139.234375 63.226562 137.78125 64.664062 137.421875 65.53125 C 136.160156 66.855469 134.984375 68.183594 133.847656 69.644531 C 133.070312 70.195312 133.078125 70.199219 132.757812 71.097656 C 129.816406 75.167969 127.78125 79.65625 127.347656 80.886719 C 131.460938 67.714844 145.636719 53.128906 165.5 47.695312 Z M 165.539062 46.097656 C 148.589844 51.132812 129.59375 65.511719 126.050781 82.882812 C 128.097656 69.625 143.292969 51.820312 165.539062 46.097656 Z M 165.515625 44.527344 C 148.042969 49.984375 129.859375 63.476562 125.929688 79.707031 C 129.085938 65.460938 144.753906 49.480469 165.515625 44.527344 Z M 160.921875 42.855469 C 161.4375 42.695312 161.953125 42.542969 162.472656 42.402344 C 161.589844 43.03125 161.699219 42.761719 160.921875 42.855469 Z M 124.4375 84.597656 C 123.882812 83.855469 123.167969 76.007812 129.09375 66.433594 C 135.226562 56.5625 145.984375 47.808594 159.636719 43.265625 C 159.238281 43.476562 159.074219 43.742188 158.644531 43.886719 C 158.066406 44.035156 157.859375 43.769531 156.625 44.4375 C 156.175781 44.683594 155.78125 45.160156 155.308594 45.191406 C 153.480469 45.382812 144.394531 50.800781 143.585938 51.964844 C 143.394531 52.183594 143.222656 52.332031 142.855469 52.484375 C 142.265625 52.707031 141.769531 53.042969 141.40625 53.398438 C 140.484375 53.941406 140.378906 54.421875 139.886719 54.972656 C 139.339844 55.332031 138.722656 55.425781 138.125 56.136719 C 137.578125 56.675781 135.949219 57.820312 133.359375 61.042969 C 132.929688 61.589844 133.410156 62 132.351562 62.429688 C 131.515625 62.789062 132.0625 63.488281 131.410156 63.921875 C 130.863281 64.273438 130.382812 64.597656 130.039062 65.363281 C 128.949219 66.910156 129.554688 66.457031 129.175781 67.429688 C 128.808594 68.023438 128.472656 68.632812 128.148438 69.25 C 127.796875 69.722656 127.738281 69.59375 127.402344 69.984375 C 127.027344 70.414062 126.671875 71.230469 126.699219 71.953125 C 126.71875 72.273438 126.613281 72.53125 126.511719 72.796875 C 125.074219 76.148438 124.113281 80.566406 124.4375 84.597656 Z M 124.621094 86.457031 C 124.589844 86.351562 124.566406 86.246094 124.539062 86.140625 C 124.546875 86.070312 124.519531 86.132812 124.59375 85.925781 C 124.621094 86.128906 124.648438 86.257812 124.621094 86.457031 Z M 124.800781 86.425781 C 124.695312 86.21875 124.695312 86.003906 124.664062 85.730469 C 124.6875 85.671875 124.707031 85.617188 124.722656 85.558594 C 124.777344 86.316406 124.761719 86.042969 124.800781 86.425781 Z M 125.34375 87.484375 C 125.335938 87.429688 125.324219 87.375 125.308594 87.320312 C 125.3125 87.296875 125.316406 87.273438 125.324219 87.25 C 125.328125 87.328125 125.339844 87.40625 125.34375 87.484375 Z M 124.691406 84.960938 C 124.660156 84.898438 124.621094 84.84375 124.578125 84.78125 C 124.285156 80.582031 125.167969 76.886719 126.695312 72.9375 C 126.9375 72.105469 127.457031 72.132812 127.679688 71.585938 C 128.757812 70.082031 127.707031 70.480469 128.976562 68.351562 C 129.921875 66.789062 128.996094 68.324219 129.429688 67.601562 C 129.882812 67.054688 130.191406 67.207031 130.640625 66.472656 C 130.980469 65.902344 130.875 66.019531 131.132812 65.738281 C 131.265625 65.589844 131.523438 65.148438 131.558594 65.074219 C 131.816406 64.601562 131.625 64.535156 131.945312 63.945312 C 131.984375 63.90625 132.027344 63.863281 132.078125 63.832031 C 132.5625 63.519531 132.855469 63.589844 132.996094 62.941406 C 133.046875 62.648438 133.132812 62.339844 133.378906 62.167969 C 134.273438 61.480469 132.988281 63.066406 136.789062 58.878906 C 137.554688 58.1875 138.769531 56.957031 138.828125 56.910156 C 139.738281 56.21875 139.691406 55.878906 140.1875 55.332031 C 140.738281 54.964844 141.144531 55.054688 142.027344 54.160156 C 143.378906 53.347656 143.066406 52.859375 143.96875 52.503906 C 144.539062 52.355469 144.910156 51.992188 145.410156 51.695312 C 149.925781 48.777344 149.574219 49.046875 154.363281 46.71875 C 154.804688 46.507812 155.320312 46.328125 155.652344 45.980469 C 156.195312 45.527344 156.714844 45.773438 157.308594 45.515625 C 158.453125 45.167969 158.371094 44.898438 158.917969 44.644531 C 159.464844 44.433594 159.941406 44.714844 161.234375 44.125 C 161.421875 44.042969 161.734375 43.769531 162.015625 43.636719 C 163.019531 43.691406 163.976562 43.371094 164.820312 43.191406 C 144.300781 48.835938 123.878906 67.613281 124.691406 84.960938 Z M 179.09375 81.402344 C 178.988281 81.484375 178.882812 81.566406 178.773438 81.648438 C 175.0625 77.152344 172.042969 72.257812 169.996094 66.953125 C 172.34375 72.214844 175.445312 76.886719 179.09375 81.402344 Z M 179.367188 78.917969 C 179.914062 79.148438 180.40625 79.726562 180.597656 80.195312 C 180.570312 80.21875 180.535156 80.246094 180.507812 80.269531 C 180.121094 79.824219 179.742188 79.375 179.367188 78.917969 Z M 176.8125 75.585938 C 177.300781 75.859375 177.46875 76.382812 177.847656 76.789062 C 178.179688 77.148438 178.382812 77.371094 178.492188 77.835938 C 177.910156 77.097656 177.355469 76.347656 176.8125 75.585938 Z M 175.617188 73.84375 C 175.726562 73.925781 175.785156 73.949219 175.855469 74.203125 C 175.773438 74.085938 175.695312 73.964844 175.617188 73.84375 Z M 174.351562 71.824219 C 174.722656 71.964844 174.800781 72.167969 174.769531 72.523438 C 174.625 72.292969 174.488281 72.058594 174.351562 71.824219 Z M 179.644531 80.972656 C 179.566406 81.039062 179.484375 81.101562 179.402344 81.164062 C 175.605469 76.988281 172.511719 72.253906 170.363281 66.847656 C 172.695312 72.023438 175.945312 76.769531 179.644531 80.972656 Z M 169.148438 59.09375 C 169.507812 60.339844 169.664062 60.777344 169.851562 61.328125 C 169.6875 61.09375 169.605469 60.828125 169.546875 60.558594 C 169.441406 59.992188 169.144531 59.691406 169.148438 59.09375 Z M 167.699219 50.808594 C 167.695312 50.828125 167.691406 50.847656 167.6875 50.867188 C 167.660156 50.109375 167.652344 49.964844 167.699219 50.808594 Z M 167.648438 51.050781 C 166.777344 55.257812 166.382812 60.375 167.496094 64.5 C 168.949219 69.878906 173.777344 78.441406 176.980469 82.988281 C 176.769531 83.136719 176.554688 83.28125 176.34375 83.429688 C 170.300781 75.875 165.660156 66.101562 165.65625 56.976562 C 165.625 55.144531 164.726562 50.628906 168.816406 41.324219 C 167.773438 44.515625 167.527344 47.660156 167.648438 51.050781 Z M 172.996094 34.207031 L 172.832031 34.09375 C 172.832031 34.089844 172.996094 34.207031 172.996094 34.207031 Z M 141.890625 41.894531 C 152.128906 35.453125 163.730469 32.539062 173.734375 32.789062 C 173.605469 32.957031 173.476562 33.128906 173.347656 33.296875 C 145.851562 33.644531 112.027344 62.066406 119.703125 84.886719 C 119.457031 84.519531 119.226562 84.140625 119.007812 83.757812 C 119.101562 81.160156 116.253906 76.09375 121.503906 64.222656 C 122.058594 63.109375 120.886719 64.300781 123.53125 59.988281 C 125.425781 56.945312 127.617188 54.074219 130.101562 51.476562 C 127.625 54.078125 125.304688 56.847656 123.378906 59.890625 C 121.578125 62.722656 121.882812 62.785156 121.203125 63.324219 C 120.65625 63.851562 116.476562 72.070312 117.511719 80.390625 C 117.234375 79.539062 117.019531 78.664062 116.863281 77.78125 C 116.949219 77.546875 117.046875 74.046875 117.074219 73.730469 C 117.25 71.582031 117.902344 69.449219 118.332031 67.664062 C 118.417969 67.117188 118.152344 67.035156 118.550781 66.085938 C 119.410156 64.210938 122.710938 54.535156 134.515625 45.027344 C 139.253906 41.273438 144.429688 38.335938 144.976562 38.066406 C 152.59375 33.878906 164.683594 30.246094 175.363281 30.835938 C 175.238281 30.972656 174.707031 31.589844 174.425781 31.929688 C 160.890625 31.578125 148.023438 37.007812 137.40625 44.949219 C 135.320312 46.59375 133.898438 47.890625 133.257812 48.441406 C 137.003906 45.21875 140.609375 42.675781 141.890625 41.894531 Z M 121.472656 99.878906 C 117.097656 93.511719 116.144531 90.542969 115.558594 88.613281 C 115.542969 88.597656 115.519531 88.574219 115.339844 88.367188 C 104.210938 53.960938 148.375 22.480469 178.550781 27.632812 C 178.25 27.898438 177.957031 28.171875 177.664062 28.449219 C 147.414062 24.289062 112.488281 52.621094 115.53125 76.855469 C 115.542969 78.800781 115.628906 79.167969 116.058594 80.460938 C 116.003906 80.160156 115.960938 79.855469 115.914062 79.554688 C 116.144531 80.449219 116.070312 80.953125 117.199219 83.210938 C 116.585938 81.445312 116.625 81.621094 116.523438 81.125 C 120.207031 91.683594 131.246094 96.015625 142.332031 96.015625 C 166.003906 96.046875 191.964844 77.992188 197.59375 57.867188 C 198.785156 53.703125 199.039062 49.300781 198.578125 48.429688 C 198.542969 47.953125 198.492188 47.480469 198.425781 47.007812 C 198.5625 46.316406 198.375 45.574219 198.070312 45.160156 C 197.472656 42.644531 196.429688 40.277344 194.765625 38.035156 C 194.695312 37.832031 194.675781 37.621094 194.574219 37.472656 C 200 44.121094 200.335938 52.042969 197.828125 60.289062 C 197.652344 60.644531 197.761719 61.101562 197.632812 61.480469 C 197.507812 61.859375 197.152344 62.144531 197.015625 62.515625 C 196.425781 63.746094 196.703125 63.578125 194.464844 67.875 C 192.199219 72.125 192.886719 70.457031 192.019531 71.96875 C 192.484375 71.421875 196.019531 66.804688 197.511719 62.714844 C 197.667969 62.34375 197.589844 61.886719 197.753906 61.523438 C 197.894531 61.152344 198.257812 60.855469 198.34375 60.460938 C 201.085938 51.96875 200.902344 43.730469 194.695312 37.480469 C 196.300781 37.578125 196.988281 37.675781 198.347656 37.886719 C 203.050781 42.496094 206.386719 49.253906 206.847656 50.519531 C 211.820312 64.257812 203.414062 76.148438 200.066406 82.136719 C 199.898438 82.3125 199.714844 82.472656 199.539062 82.644531 C 199.464844 82.875 199.289062 83.027344 199.039062 83.121094 C 198.996094 83.160156 198.957031 83.203125 198.914062 83.238281 C 198.933594 83.207031 198.949219 83.179688 198.964844 83.148438 C 198.535156 83.28125 198.28125 83.464844 198.253906 83.953125 C 198.105469 85.273438 197.121094 84.492188 196.875 85.457031 C 196.691406 86.117188 196.90625 85.773438 196.464844 86.460938 C 196.058594 87.015625 195.558594 87.484375 195.007812 87.898438 C 194.859375 87.992188 194.652344 88.03125 194.472656 88.089844 C 193.847656 88.296875 193.957031 88.71875 193.664062 89.253906 C 193.546875 89.367188 193.429688 89.488281 193.308594 89.601562 L 193.359375 89.65625 C 193.207031 89.816406 193.039062 89.964844 192.847656 90.085938 C 192.574219 90.292969 192.121094 90.300781 191.851562 90.511719 C 191.371094 90.894531 191.085938 91.5 190.679688 91.976562 C 190.4375 92.1875 189.992188 92.605469 189.726562 92.730469 C 187.980469 93.582031 188.5625 93.375 187.359375 94.6875 C 186.972656 95.3125 186 95.148438 185.554688 95.691406 C 184.277344 96.613281 181.75 98.839844 180.617188 99.339844 C 180.300781 99.476562 179.910156 99.488281 179.621094 99.667969 C 179.316406 99.816406 179.140625 100.195312 178.855469 100.386719 C 178.273438 100.75 177.589844 100.925781 176.96875 101.203125 C 173.394531 102.984375 170.230469 104.929688 163.808594 106.78125 C 153.6875 109.742188 143.839844 110.191406 133.746094 107.304688 C 132.417969 106.9375 133.023438 106.835938 132.058594 107.121094 C 131.726562 106.972656 132.136719 107.167969 131.285156 106.761719 C 130.859375 105.945312 131.640625 106.761719 126.898438 103.765625 C 128.15625 104.097656 128.878906 104.738281 130.28125 105.214844 C 131.003906 105.578125 130.644531 105.5 131.191406 105.9375 C 131.613281 106.269531 131.835938 106.105469 132.324219 106.074219 C 132.515625 106.058594 133.222656 106.289062 133.402344 106.34375 C 168.027344 116.679688 219.191406 77.289062 205.03125 48.734375 C 213.699219 82.96875 158.828125 117.8125 127.914062 101.921875 C 124.855469 100.457031 121.015625 97.285156 119.082031 93.824219 C 137.878906 120.558594 200.121094 93.878906 205.414062 59.324219 C 205.855469 56.378906 205.917969 53.34375 205.332031 50.390625 C 205.148438 49.292969 205.046875 47.96875 202.035156 43.675781 C 202.800781 45.285156 203.003906 46.113281 203.292969 47.070312 C 202.542969 44.863281 201.058594 42.75 199.53125 41 C 200.277344 42.171875 200.859375 43.40625 201.34375 44.667969 C 201.128906 44.265625 200.875 43.882812 200.570312 43.53125 C 200.070312 42.101562 200.027344 42.765625 199.203125 41.464844 C 198.605469 40.628906 198.230469 40.222656 197.648438 39.558594 C 198.480469 40.734375 199.285156 41.816406 199.511719 42.707031 C 199.667969 43.3125 199.769531 43.34375 200.089844 43.769531 C 200.320312 44.949219 200.730469 46.019531 201.054688 47.121094 C 200.949219 46.804688 200.824219 46.496094 200.640625 46.207031 C 199.972656 44.625 200.082031 42.894531 195.765625 38.117188 C 197.609375 40.621094 197.046875 39.832031 198.347656 42.039062 C 200.863281 47.828125 199.714844 46.058594 200.058594 47.5625 C 200.59375 50.542969 200.710938 52.039062 200.425781 55.019531 C 199.9375 57.757812 200.3125 57.078125 200.355469 57.964844 C 200.359375 58.511719 198.714844 65.671875 193.53125 72.882812 C 199.636719 64.328125 200.246094 58.550781 200.527344 58.003906 C 201.199219 57.339844 201.226562 56.515625 201.378906 55.730469 C 201.644531 53.035156 201.804688 50.332031 201.214844 47.710938 C 202.425781 52.46875 201.84375 57.859375 200.347656 62.597656 C 199.878906 64.214844 200.566406 63.488281 199.847656 65.011719 C 198.28125 68.710938 196.332031 72.191406 193.726562 75.578125 C 197.132812 71.136719 199.234375 66.980469 199.953125 65.054688 C 200.101562 64.671875 200.191406 64.269531 200.507812 63.953125 C 200.667969 63.792969 200.859375 63.644531 200.960938 63.460938 C 201.273438 62.828125 203.890625 56.332031 202.78125 49.460938 C 206.238281 65.074219 191.601562 90.972656 158.332031 100.519531 C 156.09375 101.167969 150.226562 102.230469 145.371094 102.296875 C 136.085938 102.476562 126.539062 100.140625 120.742188 92.9375 C 134.089844 107.378906 167.996094 102.578125 189.425781 80.539062 C 169.875 100.523438 135.019531 108.023438 121.144531 92 C 119.257812 89.855469 118.933594 88.601562 117.980469 87.210938 C 117.808594 87.027344 117.558594 86.871094 117.414062 86.667969 C 117.273438 86.464844 117.179688 86.234375 117.113281 86 C 117.003906 85.671875 116.828125 85.429688 116.445312 84.691406 C 116.519531 84.902344 116.585938 85.117188 116.65625 85.328125 C 115.785156 84.203125 116.449219 84.976562 115.582031 82.792969 C 115.628906 83.105469 115.660156 83.421875 115.746094 83.726562 C 115.847656 84.140625 116.039062 84.535156 116.011719 84.964844 C 114.992188 81.894531 115.46875 84.285156 114.878906 80.734375 C 115.171875 83.011719 115.160156 82.503906 115.132812 83.378906 C 115.132812 84.875 117.550781 92.851562 120.96875 97.945312 C 143.765625 121.621094 204.605469 92.402344 207.109375 57.761719 C 206.832031 86.207031 167.492188 111.433594 138.847656 107.304688 C 137.546875 107.121094 132.976562 106.226562 132.429688 105.753906 C 132.039062 105.445312 132.019531 105.175781 131.476562 105.167969 C 130.933594 105.160156 130.875 105.296875 130.328125 105.09375 C 127.179688 103.773438 127.515625 103.722656 126.566406 102.824219 C 126.355469 102.605469 125.945312 102.265625 125.636719 102.261719 C 125.144531 102.21875 124.839844 102.308594 124.621094 101.804688 C 124.410156 101.363281 124.417969 101.050781 123.871094 100.992188 C 123.679688 100.964844 123.472656 100.957031 123.308594 100.894531 C 123.792969 101.398438 124.0625 101.640625 124.664062 102.199219 C 124.84375 102.285156 124.875 102.351562 124.949219 102.464844 C 132.703125 109.648438 137.78125 114.890625 155.367188 114.003906 C 177.789062 111.3125 198.234375 96.492188 206.382812 80.347656 C 210.273438 72.023438 211.394531 59.671875 206.65625 49.054688 C 229.597656 89.367188 150.59375 140.007812 121.472656 99.878906 Z M 189.882812 20.777344 C 186.074219 22.179688 182.570312 24.167969 179.226562 27.027344 C 153.332031 22.769531 123.972656 41.070312 115.378906 62.503906 C 113.707031 66.71875 112.535156 71.761719 112.71875 78.652344 C 112.902344 86.609375 115.28125 92.167969 118.921875 98.476562 C 135.433594 123.945312 170.832031 118.183594 192.859375 99.347656 C 217.472656 114.59375 245.855469 113.628906 258.542969 87.21875 C 276.722656 49.539062 224.976562 9.789062 193.359375 19.585938 C 192.40625 19.878906 189.882812 20.777344 189.882812 20.777344 " fill-opacity="1" fill-rule="nonzero"/></g><path fill="#000000" d="M 115.542969 88.597656 C 115.542969 88.597656 115.535156 88.589844 115.542969 88.597656 " fill-opacity="1" fill-rule="nonzero"/><path fill="#000000" d="M 182.066406 105.476562 C 183.089844 104.898438 183.554688 104.621094 182.511719 105.203125 C 182.359375 105.289062 182.210938 105.378906 182.066406 105.476562 " fill-opacity="1" fill-rule="nonzero"/><path fill="#000000" d="M 190.054688 100.128906 C 190.410156 99.847656 190.761719 99.5625 191.109375 99.273438 C 190.519531 99.464844 190.359375 99.617188 190.054688 100.128906 " fill-opacity="1" fill-rule="nonzero"/><path fill="#000000" d="M 204.46875 83.980469 C 204.675781 83.628906 204.882812 83.277344 205.082031 82.914062 C 204.75 83.300781 204.75 83.375 204.46875 83.980469 " fill-opacity="1" fill-rule="nonzero"/><path fill="#000000" d="M 122.140625 99.546875 C 122.398438 99.871094 122.664062 100.183594 122.9375 100.488281 C 122.738281 99.929688 122.773438 99.664062 122.140625 99.546875 " fill-opacity="1" fill-rule="nonzero"/><path fill="#000000" d="M 115.410156 75.921875 C 115.339844 77.859375 115.390625 77.945312 115.515625 78.496094 C 115.449219 77.636719 115.410156 76.78125 115.410156 75.921875 " fill-opacity="1" fill-rule="nonzero"/><path fill="#000000" d="M 120.832031 91.023438 C 120.949219 91.246094 121.011719 91.519531 121.121094 91.753906 C 121.394531 92.300781 128.804688 100.484375 146.101562 99.277344 C 155.34375 98.648438 165.894531 95.25 173.445312 90.859375 C 179.550781 87.03125 183.117188 84.15625 187.09375 80.324219 C 168.382812 98.566406 137 105.386719 122.207031 91.601562 C 122.007812 91.445312 121.804688 91.296875 121.613281 91.136719 C 120.621094 90.730469 120.910156 90.796875 120.074219 89.78125 C 119.3125 88.816406 119.328125 88.9375 118.585938 88 C 118.992188 88.660156 119.429688 89.304688 119.910156 89.910156 C 120.179688 90.316406 120.59375 90.59375 120.832031 91.023438 " fill-opacity="1" fill-rule="nonzero"/><path fill="#000000" d="M 135.136719 96.855469 C 135.929688 96.828125 135.960938 97.136719 136.503906 97.234375 C 151.902344 99.507812 169.324219 91.496094 171.738281 89.683594 C 173.730469 88.148438 177.03125 87.011719 184.707031 80.097656 C 174.011719 89.882812 157.902344 97.648438 141.824219 97.074219 C 139.136719 97.234375 136.417969 97.035156 133.757812 96.558594 C 134.375 96.96875 134.515625 96.90625 135.136719 96.855469 " fill-opacity="1" fill-rule="nonzero"/><path fill="#000000" d="M 132.832031 96.386719 C 132.269531 96.273438 132.417969 96.296875 131.867188 96.171875 C 132.214844 96.414062 132.449219 96.425781 132.832031 96.386719 " fill-opacity="1" fill-rule="nonzero"/></svg>