<svg xmlns="http://www.w3.org/2000/svg" xmlns:xlink="http://www.w3.org/1999/xlink" width="300" zoomAndPan="magnify" viewBox="0 0 224.87999 225" height="300" preserveAspectRatio="xMidYMid meet" version="1.0"><defs><g/></defs><g fill="#ebe2da" fill-opacity="1"><g transform="translate(43.910159, 95.783927)"><g><path d="M 20.078125 0.4375 C 16.429688 0.4375 13.273438 -0.710938 10.609375 -3.015625 C 7.953125 -5.328125 6 -8.519531 4.75 -12.59375 C 3.5 -16.675781 3.140625 -21.378906 3.671875 -26.703125 C 4.296875 -32.597656 5.585938 -37.738281 7.546875 -42.125 C 9.515625 -46.519531 12.054688 -49.925781 15.171875 -52.34375 C 18.296875 -54.769531 21.851562 -55.984375 25.84375 -55.984375 C 29.53125 -55.984375 32.691406 -54.84375 35.328125 -52.5625 C 37.972656 -50.289062 39.914062 -47.113281 41.15625 -43.03125 C 42.40625 -38.957031 42.769531 -34.257812 42.25 -28.9375 C 41.625 -23.03125 40.328125 -17.878906 38.359375 -13.484375 C 36.390625 -9.097656 33.859375 -5.679688 30.765625 -3.234375 C 27.671875 -0.785156 24.109375 0.4375 20.078125 0.4375 Z M 20.796875 -7.265625 C 23.097656 -7.265625 25.148438 -8.175781 26.953125 -10 C 28.753906 -11.820312 30.238281 -14.351562 31.40625 -17.59375 C 32.582031 -20.832031 33.363281 -24.613281 33.75 -28.9375 C 34.132812 -32.820312 34.015625 -36.210938 33.390625 -39.109375 C 32.765625 -42.015625 31.742188 -44.269531 30.328125 -45.875 C 28.921875 -47.488281 27.179688 -48.296875 25.109375 -48.296875 C 22.859375 -48.296875 20.820312 -47.394531 19 -45.59375 C 17.175781 -43.789062 15.675781 -41.269531 14.5 -38.03125 C 13.320312 -34.789062 12.539062 -31.015625 12.15625 -26.703125 C 11.78125 -22.816406 11.898438 -19.421875 12.515625 -16.515625 C 13.140625 -13.609375 14.160156 -11.335938 15.578125 -9.703125 C 16.992188 -8.078125 18.734375 -7.265625 20.796875 -7.265625 Z M 20.796875 -7.265625 "/></g></g></g><g fill="#ebe2da" fill-opacity="1"><g transform="translate(131.554789, 95.783927)"><g><path d="M 6.984375 0 C 5.785156 0 4.800781 -0.394531 4.03125 -1.1875 C 3.257812 -1.976562 2.945312 -2.972656 3.09375 -4.171875 L 8.0625 -52.03125 C 8.15625 -53.226562 8.617188 -54.113281 9.453125 -54.6875 C 10.296875 -55.269531 11.390625 -55.5625 12.734375 -55.5625 C 13.691406 -55.5625 14.539062 -55.378906 15.28125 -55.015625 C 16.03125 -54.660156 16.597656 -54.023438 16.984375 -53.109375 L 34.90625 -15.328125 L 32.8125 -14.96875 L 36.703125 -52.03125 C 36.796875 -53.28125 37.25 -54.226562 38.0625 -54.875 C 38.882812 -55.519531 39.894531 -55.84375 41.09375 -55.84375 C 42.53125 -55.84375 43.597656 -55.382812 44.296875 -54.46875 C 44.992188 -53.5625 45.269531 -52.414062 45.125 -51.03125 L 40.15625 -3.453125 C 40.113281 -2.546875 39.828125 -1.742188 39.296875 -1.046875 C 38.765625 -0.347656 37.78125 0 36.34375 0 C 34.28125 0 32.863281 -0.789062 32.09375 -2.375 L 13.53125 -41.453125 L 15.546875 -41.8125 L 11.65625 -3.59375 C 11.5625 -2.632812 11.117188 -1.796875 10.328125 -1.078125 C 9.535156 -0.359375 8.421875 0 6.984375 0 Z M 6.984375 0 "/></g></g></g><g fill="#ebe2da" fill-opacity="1"><g transform="translate(43.511934, 184.386632)"><g><path d="M 7.125 0 C 5.832031 0 4.800781 -0.429688 4.03125 -1.296875 C 3.257812 -2.160156 2.945312 -3.238281 3.09375 -4.53125 L 8.125 -51.453125 C 8.320312 -53.234375 8.800781 -54.347656 9.5625 -54.796875 C 10.332031 -55.253906 11.414062 -55.507812 12.8125 -55.5625 C 19.382812 -55.988281 24.863281 -55.675781 29.25 -54.625 C 33.644531 -53.570312 36.882812 -51.820312 38.96875 -49.375 C 41.0625 -46.925781 41.890625 -43.832031 41.453125 -40.09375 C 41.304688 -38.644531 40.984375 -37.257812 40.484375 -35.9375 C 39.984375 -34.625 39.117188 -33.40625 37.890625 -32.28125 C 36.671875 -31.15625 34.929688 -30.160156 32.671875 -29.296875 C 30.421875 -28.429688 27.445312 -27.707031 23.75 -27.125 C 20.050781 -26.550781 15.46875 -26.171875 10 -25.984375 L 10.578125 -30.875 C 15.328125 -31.019531 19.148438 -31.34375 22.046875 -31.84375 C 24.953125 -32.351562 27.171875 -33.003906 28.703125 -33.796875 C 30.242188 -34.585938 31.3125 -35.484375 31.90625 -36.484375 C 32.507812 -37.492188 32.882812 -38.578125 33.03125 -39.734375 C 33.226562 -41.316406 32.675781 -42.765625 31.375 -44.078125 C 30.082031 -45.398438 28.128906 -46.421875 25.515625 -47.140625 C 22.898438 -47.859375 19.695312 -48.070312 15.90625 -47.78125 L 11.734375 -8.28125 C 18.066406 -8.375 23.066406 -9.195312 26.734375 -10.75 C 30.398438 -12.3125 32.40625 -14.296875 32.75 -16.703125 C 32.988281 -18.421875 32.21875 -19.890625 30.4375 -21.109375 C 28.664062 -22.335938 25.992188 -23.226562 22.421875 -23.78125 C 18.847656 -24.332031 14.46875 -24.414062 9.28125 -24.03125 L 10 -30.796875 C 17.050781 -31.273438 22.988281 -30.972656 27.8125 -29.890625 C 32.632812 -28.816406 36.222656 -27.054688 38.578125 -24.609375 C 40.929688 -22.160156 41.914062 -19.140625 41.53125 -15.546875 C 41.1875 -12.328125 39.5625 -9.554688 36.65625 -7.234375 C 33.757812 -4.910156 29.800781 -3.125 24.78125 -1.875 C 19.769531 -0.625 13.882812 0 7.125 0 Z M 7.125 0 "/></g></g></g><g fill="#ebe2da" fill-opacity="1"><g transform="translate(134.026125, 184.386632)"><g><path d="M 7.125 0 C 5.832031 0 4.800781 -0.429688 4.03125 -1.296875 C 3.257812 -2.160156 2.945312 -3.238281 3.09375 -4.53125 L 8.125 -51.453125 C 8.320312 -53.234375 8.800781 -54.347656 9.5625 -54.796875 C 10.332031 -55.253906 11.414062 -55.507812 12.8125 -55.5625 C 19.382812 -55.988281 24.863281 -55.675781 29.25 -54.625 C 33.644531 -53.570312 36.882812 -51.820312 38.96875 -49.375 C 41.0625 -46.925781 41.890625 -43.832031 41.453125 -40.09375 C 41.304688 -38.644531 40.984375 -37.257812 40.484375 -35.9375 C 39.984375 -34.625 39.117188 -33.40625 37.890625 -32.28125 C 36.671875 -31.15625 34.929688 -30.160156 32.671875 -29.296875 C 30.421875 -28.429688 27.445312 -27.707031 23.75 -27.125 C 20.050781 -26.550781 15.46875 -26.171875 10 -25.984375 L 10.578125 -30.875 C 15.328125 -31.019531 19.148438 -31.34375 22.046875 -31.84375 C 24.953125 -32.351562 27.171875 -33.003906 28.703125 -33.796875 C 30.242188 -34.585938 31.3125 -35.484375 31.90625 -36.484375 C 32.507812 -37.492188 32.882812 -38.578125 33.03125 -39.734375 C 33.226562 -41.316406 32.675781 -42.765625 31.375 -44.078125 C 30.082031 -45.398438 28.128906 -46.421875 25.515625 -47.140625 C 22.898438 -47.859375 19.695312 -48.070312 15.90625 -47.78125 L 11.734375 -8.28125 C 18.066406 -8.375 23.066406 -9.195312 26.734375 -10.75 C 30.398438 -12.3125 32.40625 -14.296875 32.75 -16.703125 C 32.988281 -18.421875 32.21875 -19.890625 30.4375 -21.109375 C 28.664062 -22.335938 25.992188 -23.226562 22.421875 -23.78125 C 18.847656 -24.332031 14.46875 -24.414062 9.28125 -24.03125 L 10 -30.796875 C 17.050781 -31.273438 22.988281 -30.972656 27.8125 -29.890625 C 32.632812 -28.816406 36.222656 -27.054688 38.578125 -24.609375 C 40.929688 -22.160156 41.914062 -19.140625 41.53125 -15.546875 C 41.1875 -12.328125 39.5625 -9.554688 36.65625 -7.234375 C 33.757812 -4.910156 29.800781 -3.125 24.78125 -1.875 C 19.769531 -0.625 13.882812 0 7.125 0 Z M 7.125 0 "/></g></g></g><g fill="#ebe2da" fill-opacity="1"><g transform="translate(97.030617, 130.715284)"><g><path d="M 12.09375 0.234375 C 10.332031 0.234375 8.738281 -0.128906 7.3125 -0.859375 C 5.894531 -1.597656 4.773438 -2.65625 3.953125 -4.03125 C 3.140625 -5.40625 2.734375 -7.019531 2.734375 -8.875 C 2.734375 -11.050781 3.109375 -12.9375 3.859375 -14.53125 C 4.609375 -16.132812 5.597656 -17.535156 6.828125 -18.734375 C 8.066406 -19.929688 9.421875 -20.992188 10.890625 -21.921875 L 12.859375 -23.265625 C 15.222656 -24.796875 16.90625 -26.171875 17.90625 -27.390625 C 18.914062 -28.609375 19.3125 -29.613281 19.09375 -30.40625 C 18.96875 -30.851562 18.71875 -31.210938 18.34375 -31.484375 C 17.976562 -31.765625 17.238281 -31.90625 16.125 -31.90625 C 15.320312 -31.90625 14.59375 -31.726562 13.9375 -31.375 C 13.28125 -31.019531 12.765625 -30.601562 12.390625 -30.125 C 12.023438 -29.644531 11.84375 -29.195312 11.84375 -28.78125 C 11.875 -28.300781 12.101562 -27.644531 12.53125 -26.8125 C 12.96875 -25.976562 13.515625 -25.066406 14.171875 -24.078125 C 14.828125 -23.085938 15.476562 -22.113281 16.125 -21.15625 L 27.109375 -4.796875 C 27.554688 -4.085938 27.8125 -3.363281 27.875 -2.625 C 27.9375 -1.894531 27.535156 -1.210938 26.671875 -0.578125 C 26.160156 -0.222656 25.59375 -0.0507812 24.96875 -0.0625 C 24.34375 -0.0820312 23.765625 -0.234375 23.234375 -0.515625 C 22.710938 -0.804688 22.304688 -1.160156 22.015625 -1.578125 L 8.53125 -22.40625 C 8.21875 -22.945312 7.859375 -23.535156 7.453125 -24.171875 C 7.054688 -24.816406 6.722656 -25.515625 6.453125 -26.265625 C 6.179688 -27.015625 6.046875 -27.835938 6.046875 -28.734375 C 6.046875 -30.171875 6.53125 -31.515625 7.5 -32.765625 C 8.476562 -34.015625 9.789062 -35.03125 11.4375 -35.8125 C 13.082031 -36.59375 14.929688 -36.984375 16.984375 -36.984375 C 19.503906 -36.984375 21.5 -36.507812 22.96875 -35.5625 C 24.445312 -34.625 25.1875 -33.304688 25.1875 -31.609375 C 25.1875 -30.265625 24.894531 -29 24.3125 -27.8125 C 23.738281 -26.632812 22.738281 -25.347656 21.3125 -23.953125 C 19.894531 -22.566406 17.90625 -20.914062 15.34375 -19 L 14.203125 -18.125 C 12.148438 -16.59375 10.675781 -15.007812 9.78125 -13.375 C 8.882812 -11.75 8.4375 -10.28125 8.4375 -8.96875 C 8.4375 -7.71875 8.859375 -6.734375 9.703125 -6.015625 C 10.554688 -5.296875 11.578125 -4.9375 12.765625 -4.9375 C 14.515625 -4.9375 16.269531 -5.816406 18.03125 -7.578125 C 19.789062 -9.335938 21.679688 -11.941406 23.703125 -15.390625 C 24.148438 -16.160156 24.753906 -16.664062 25.515625 -16.90625 C 26.285156 -17.144531 26.972656 -17.070312 27.578125 -16.6875 C 28.378906 -16.238281 28.882812 -15.671875 29.09375 -14.984375 C 29.300781 -14.296875 29.179688 -13.585938 28.734375 -12.859375 C 27.066406 -9.972656 25.363281 -7.554688 23.625 -5.609375 C 21.882812 -3.660156 20.066406 -2.195312 18.171875 -1.21875 C 16.285156 -0.25 14.257812 0.234375 12.09375 0.234375 Z M 12.09375 0.234375 "/></g></g></g><path stroke-linecap="butt" transform="matrix(2.2488, 0, 0, 2.2488, 13.35183, 112.500005)" fill="none" stroke-linejoin="miter" d="M -0.000118807 -0.00000236111 L 31.999589 -0.00000236111 " stroke="#000000" stroke-width="1" stroke-opacity="1" stroke-miterlimit="4"/><path stroke-linecap="butt" transform="matrix(2.2488, 0, 0, 2.2488, 144.931633, 112.500005)" fill="none" stroke-linejoin="miter" d="M -0.000865302 -0.00000236111 L 32.00058 -0.00000236111 " stroke="#000000" stroke-width="1" stroke-opacity="1" stroke-miterlimit="4"/><path stroke-linecap="butt" transform="matrix(0.000000000000000138, -2.2488, 2.2488, 0.000000000000000138, 114.48238, 83.773359)" fill="none" stroke-linejoin="miter" d="M -0.0000348013 -0.000850024 L 31.999673 -0.000850024 " stroke="#000000" stroke-width="1" stroke-opacity="1" stroke-miterlimit="4"/><path stroke-linecap="butt" transform="matrix(0.000000000000000138, -2.2488, 2.2488, 0.000000000000000138, 113.35798, 213.171262)" fill="none" stroke-linejoin="miter" d="M -0.00027248 0.000620162 L 31.999436 0.000620162 " stroke="#000000" stroke-width="1" stroke-opacity="1" stroke-miterlimit="4"/></svg>